<?xml version="1.0" encoding="UTF-8"?>
<svg width="20px" height="171px" viewBox="0 0 20 171" version="1.1" xmlns="http://www.w3.org/2000/svg" xmlns:xlink="http://www.w3.org/1999/xlink">
    <title>Artboard</title>
    <g id="Artboard" stroke="none" stroke-width="1" fill="none" fill-rule="evenodd">
        <path d="M7.81438441,162.967674 C6.96851214,162.118496 6.49355574,160.969188 6.49355574,159.770615 C6.49355574,158.572043 6.96851214,157.422735 7.81438441,156.573557 L11.3642087,153.023862 C11.7817321,152.599921 12.2794413,152.262843 12.8282957,152.03337 C13.3771501,151.803898 13.9661945,151.685272 14.5612027,151.685272 C15.1562109,151.685272 15.7452553,151.803898 16.2941097,152.03337 C16.8429641,152.262843 17.3406733,152.599921 17.7581967,153.023862 C18.6008278,153.872392 19.0737747,155.019755 19.0737747,156.215735 C19.0737747,157.411067 18.6008278,158.55843 17.7581967,159.40696 L15.6935916,161.218756 C15.5119582,161.40026 15.2656965,161.50268 15.0088687,161.50268 C14.7520409,161.50268 14.5057792,161.40026 14.3242107,161.218756 C14.1425773,161.037252 14.0406111,160.790926 14.0406111,160.534228 C14.0406111,160.27753 14.1425773,160.031203 14.3242107,159.849699 L16.399317,158.048275 C16.640004,157.807782 16.8309718,157.521914 16.9612008,157.207523 C17.0914945,156.893133 17.1585213,156.556055 17.1585213,156.215735 C17.1585213,155.874767 17.0914945,155.537689 16.9612008,155.223298 C16.8309718,154.908908 16.640004,154.62304 16.399317,154.382547 C16.1586301,154.142055 15.8728914,153.950828 15.5584361,153.820534 C15.2439161,153.69024 14.9068377,153.623473 14.5664533,153.623473 C14.226069,153.623473 13.8889906,153.69024 13.5745354,153.820534 C13.2600153,153.950828 12.9742766,154.142055 12.7335896,154.382547 L9.17319923,157.932242 C8.93244748,158.172734 8.74141479,158.458603 8.61112103,158.772993 C8.48076245,159.088032 8.41367088,159.42511 8.41367088,159.76543 C8.41367088,160.105749 8.48076245,160.442828 8.61112103,160.757218 C8.74141479,161.071608 8.93244748,161.357477 9.17319923,161.597969 C9.35483262,161.779473 9.45679883,162.0258 9.45679883,162.283146 C9.45679883,162.539844 9.35483262,162.786171 9.17319923,162.967674 C8.99163066,163.149178 8.74530415,163.25095 8.48854118,163.25095 C8.23171338,163.25095 7.98545169,163.149178 7.8038183,162.967674 L7.81438441,162.967674 Z" id="Path" fill="#999999" fill-rule="nonzero"></path>
        <path d="M1.88389867,169.035085 C1.0380264,168.185907 0.563084251,167.036599 0.563084251,165.838026 C0.563084251,164.639453 1.0380264,163.490146 1.88389867,162.640968 L3.91690266,160.639889 C4.09849067,160.457737 4.34478477,160.355965 4.60159312,160.355965 C4.85840147,160.355965 5.10468909,160.457737 5.28628358,160.639889 C5.4678716,160.821393 5.56988967,161.067719 5.56988967,161.324417 C5.56988967,161.581115 5.4678716,161.827442 5.28628358,162.008946 L3.25327959,164.010673 C2.76717367,164.496195 2.49408184,165.155443 2.49408184,165.843212 C2.49408184,166.530982 2.76717367,167.190229 3.25327959,167.6764 C3.73938551,168.161923 4.3986849,168.435475 5.0861433,168.435475 C5.77359521,168.435475 6.43290108,168.161923 6.91898755,167.6764 L10.4688767,164.115685 C11.4801118,163.10445 11.4801118,161.461193 10.4688767,160.449958 C10.2872433,160.268454 10.1852771,160.022128 10.1852771,159.76543 C10.1852771,159.508732 10.2872433,159.262405 10.4688767,159.080901 C10.6504452,158.898749 10.8967718,158.796978 11.1535347,158.796978 C11.4103625,158.796978 11.6566242,158.898749 11.8382576,159.080901 C12.6841299,159.929431 13.1590863,161.079387 13.1590863,162.277312 C13.1590863,163.475885 12.6841299,164.625841 11.8382576,165.474371 L8.27786719,169.035085 C7.86034376,169.459026 7.36263456,169.795456 6.8137802,170.025577 C6.26494529,170.25505 5.67588137,170.373675 5.0808732,170.373675 C4.48586504,170.373675 3.89680112,170.25505 3.34795324,170.025577 C2.79910537,169.795456 2.30143506,169.459026 1.88389867,169.035085 L1.88389867,169.035085 Z" id="Path" fill="#999999" fill-rule="nonzero"></path>
        <path d="M1.29666275,130.617873 L18.1501799,130.617873 C18.8664715,130.617873 19.4468297,131.42362 19.4468297,132.076385 C19.4468297,132.882132 18.8664715,133.534898 18.1501799,133.534898 L1.29666275,133.534898 C0.58034785,133.534898 0,132.729151 0,132.076385 C0,131.270638 0.58034785,130.617873 1.29666275,130.617873 Z" id="Path" fill="#999999"></path>
        <path d="M6.20402486,121.836333 C5.67375518,121.317103 4.81605924,121.317751 4.2865091,121.836333 C3.75698489,122.354915 3.75698489,123.195018 4.2865091,123.714248 L9.08361417,128.413899 C9.43715753,128.760053 10.0099315,128.759404 10.3634749,128.413899 L15.1606188,123.714248 C15.690156,123.195018 15.6893781,122.354267 15.1606188,121.836333 C14.6310816,121.317103 13.7726338,121.317751 13.2430966,121.836333 L11.0668667,123.969002 L11.0668667,115.415638 C11.0668667,114.683141 10.4597367,114.088068 9.7109689,114.088068 C8.96213631,114.088068 8.35578415,114.681844 8.35578415,115.415638 L8.35578415,123.944369 L6.20402486,121.836333 Z" id="Path" fill="#999999"></path>
        <path d="M11.2204318,19.4468297 L11.2204318,9.72224806 L13.9051963,9.72224806 L14.2610085,6.37113795 L11.2204318,6.37113795 L11.2249694,4.69386185 C11.2249694,3.81983705 11.3080722,3.35151201 12.5635595,3.35151201 L14.2420154,3.35151201 L14.2420154,0 L11.5567972,0 C8.33147562,0 7.19629934,1.62566421 7.19629934,4.3595125 L7.19629934,6.37152688 L5.18582126,6.37152688 L5.18582126,9.72263699 L7.19629934,9.72263699 L7.19629934,19.4468297 L11.2204318,19.4468297 Z" id="Path" fill="#999999"></path>
        <path d="M9.44253782,45.1493157 L9.48467262,45.8502442 L8.78212349,45.7644189 C6.22477462,45.4354433 3.99060614,44.3196491 2.09366514,42.4456877 L1.16626527,41.51587 L0.927393381,42.2024727 C0.421545687,43.7331327 0.744716345,45.349618 1.79857246,46.4367606 C2.36062473,47.0376028 2.23417496,47.1233633 1.26462734,46.7657361 C0.927393381,46.651324 0.632314317,46.5654986 0.604211703,46.6084113 C0.505852231,46.7085625 0.843091374,48.0103332 1.11006393,48.5252853 C1.47540504,49.2405397 2.22012139,49.9414683 3.03510561,50.356334 L3.7236271,50.6853095 L2.90863639,50.6996353 C2.12175932,50.6996353 2.09366514,50.7139612 2.17797363,51.0143499 C2.45900624,51.9441676 3.5690637,52.9312239 4.80558388,53.3603506 L5.67675648,53.6607393 L4.91798656,54.1185176 C3.79387553,54.7765335 2.47305334,55.1484866 1.15222466,55.1770734 C0.5199084,55.1913992 0,55.2486377 0,55.2915504 C0,55.4345494 1.71427045,56.2356292 2.71191875,56.5503437 C5.70487011,57.4801615 9.25986727,57.0796216 11.9296577,55.4917879 C13.8265663,54.3616678 15.7235397,52.1158183 16.6087594,49.9414683 C17.0865032,48.7827613 17.564247,46.6656498 17.564247,45.6500067 C17.564247,44.991926 17.6064466,44.9061655 18.3933301,44.1193467 C18.8570074,43.6616332 19.2926164,43.1609421 19.376886,43.0178783 C19.5174217,42.7460764 19.5033552,42.7460764 18.7867395,42.9892915 C17.5923801,43.4184182 17.4237112,43.3611797 18.0139225,42.7174896 C18.4494667,42.2597112 18.9694101,41.4300446 18.9694101,41.1868296 C18.9694101,41.143917 18.7586064,41.2154813 18.5197345,41.3442193 C18.2667961,41.4872183 17.7047827,41.7018465 17.2832403,41.8305845 L16.5244898,42.0737347 L15.8359424,41.6016953 C15.4565347,41.3442193 14.9225896,41.0580916 14.6415829,40.9722663 C13.9249673,40.7720288 12.8289439,40.8006156 12.1825961,41.0295048 C10.4261585,41.6731948 9.31606861,43.3325928 9.44253782,45.1493157 Z" id="Path" fill="#999999"></path>
        <polygon id="Path" fill="#999999" points="4.37594507 83.7587921 0.244311818 83.7587921 0.244311818 96.1457744 4.37594507 96.1457744"></polygon>
        <path d="M4.64807104,79.9271184 C4.62125387,78.7123398 3.75084618,77.7873189 2.33744411,77.7873189 C0.924035562,77.7873189 0,78.7123398 0,79.9271184 C0,81.1166162 0.89672573,82.0682144 2.28380975,82.0682144 L2.31021207,82.0682144 C3.75084618,82.0682144 4.64807104,81.1166162 4.64807104,79.9271184 Z" id="Path" fill="#999999"></path>
        <path d="M19.2762162,89.0437922 C19.2762162,85.2386959 17.2379292,83.4677379 14.5191327,83.4677379 C12.3255303,83.4677379 11.3434006,84.6702002 10.795,85.5135444 L10.795,83.7594403 L6.6628728,83.7594403 C6.71732393,84.9217125 6.6628728,96.1464227 6.6628728,96.1464227 L10.795,96.1464227 L10.795,89.2285371 C10.795,88.8577509 10.8218366,88.4889093 10.931063,88.2237842 C11.2297015,87.4841565 11.9095626,86.7185996 13.0510267,86.7185996 C14.5466824,86.7185996 15.1445428,87.8542945 15.1445428,89.5189431 L15.1445428,96.1457744 L19.2760217,96.1457744 L19.2762162,89.0437922 Z" id="Path" fill="#999999"></path>
    </g>
</svg>